<svg viewBox="0 0 100 100" xmlns="http://www.w3.org/2000/svg" style="height: 100%; width: 100%; background: rgb(241, 242, 243);" width="207px" height="207px"><g class="ldl-scale" style="transform-origin: 50% 50%; transform: rotate(0deg) scale(0.82, 0.82);"><g class="ldl-ani"><g class="ldl-layer"><g class="ldl-ani" style="transform-origin: 50px 50px; transform: rotate(0deg); animation: 1.69492s linear -0.988701s infinite reverse forwards running spin-a8af7ff7-9911-497f-be27-1227e5e5e3b1;"><path fill="#a0c8d7" d="M33.989 13.378l-7.406-3.937s-.172 4.639-.305 8.394a40.037 40.037 0 0 0-10.107 10.833l13.06 7.541c4.313-6.479 11.456-10.604 19.21-11.094V10.03a39.882 39.882 0 0 0-14.452 3.348z" style="fill: rgb(20, 11, 52);"></path></g></g><g class="ldl-layer"><g class="ldl-ani" style="transform-origin: 50px 50px; transform: rotate(0deg); animation: 1.69492s linear -1.12994s infinite reverse forwards running spin-a8af7ff7-9911-497f-be27-1227e5e5e3b1;"><path fill="#849b87" d="M27.67 38.907l-13.061-7.541a39.994 39.994 0 0 0-4.352 14.202L3.167 50s3.911 2.456 7.092 4.445a39.962 39.962 0 0 0 4.351 14.188l13.061-7.541a24.928 24.928 0 0 1-2.606-11.093c0-3.853.897-7.656 2.605-11.092z" style="fill: rgb(132, 32, 107);"></path></g></g><g class="ldl-layer"><g class="ldl-ani" style="transform-origin: 50px 50px; transform: rotate(0deg); animation: 1.69492s linear -1.27119s infinite reverse forwards running spin-a8af7ff7-9911-497f-be27-1227e5e5e3b1;"><path fill="#abbd81" d="M48.442 74.885c-7.754-.49-14.897-4.615-19.21-11.094l-13.06 7.541A40.05 40.05 0 0 0 26.29 82.173l.294 8.386s4.101-2.169 7.418-3.931a39.863 39.863 0 0 0 14.44 3.342V74.885z" style="fill: rgb(132, 32, 107);"></path></g></g><g class="ldl-layer"><g class="ldl-ani" style="transform-origin: 50px 50px; transform: rotate(0deg); animation: 1.69492s linear -1.41243s infinite reverse forwards running spin-a8af7ff7-9911-497f-be27-1227e5e5e3b1;"><path fill="#f8b26a" d="M83.829 71.332l-13.06-7.541c-4.313 6.479-11.456 10.604-19.21 11.094v15.084a39.87 39.87 0 0 0 14.453-3.347l7.406 3.937s.172-4.639.305-8.394a40.065 40.065 0 0 0 10.106-10.833z" style="fill: rgb(132, 32, 107);"></path></g></g><g class="ldl-layer"><g class="ldl-ani" style="transform-origin: 50px 50px; transform: rotate(0deg); animation: 1.69492s linear -1.55367s infinite reverse forwards running spin-a8af7ff7-9911-497f-be27-1227e5e5e3b1;"><path fill="#f47e60" d="M96.833 50s-3.911-2.456-7.092-4.445a39.962 39.962 0 0 0-4.351-14.188l-13.06 7.54A24.928 24.928 0 0 1 74.936 50c0 3.853-.897 7.657-2.606 11.093l13.061 7.541a39.996 39.996 0 0 0 4.352-14.201L96.833 50z" style="fill: rgb(20, 11, 52);"></path></g></g><g class="ldl-layer"><g class="ldl-ani" style="transform-origin: 50px 50px; transform: rotate(0deg); animation: 1.69492s linear -1.69492s infinite reverse forwards running spin-a8af7ff7-9911-497f-be27-1227e5e5e3b1;"><path fill="#e15b64" d="M73.71 17.828l-.294-8.387s-4.101 2.169-7.418 3.931a39.884 39.884 0 0 0-14.44-3.342v15.084c7.754.49 14.897 4.615 19.21 11.094l13.06-7.541A40.025 40.025 0 0 0 73.71 17.828z" style="fill: rgb(20, 11, 52);"></path></g></g><metadata xmlns:d="https://loading.io/stock/">
<d:name>wheel</d:name>
<d:tags>wheel,ring,cycle,composition,part,circle,infographics</d:tags>
<d:license>by</d:license>
<d:slug>61aoed</d:slug>
</metadata></g></g></svg>